# xmcd
#
# Track frame offsets:
#	150
#	15455
#	32050
#	47930
#	64180
#	81042
#	96265
#	116072
#	131367
#	147962
#	163842
#	180092
#	196955
#	212180
#
# Disc length: 3147 seconds
#
# Revision: 1
# Processed by: cddbd v1.5.2PL0 Copyright (c) Steve Scherf et al.
# Submitted via: audiograbber 1.83.01
#
DISCID=bf0c490e
DTITLE=Various Artist - CHM9906C2
DYEAR=1999
DGENRE=Country
TTITLE0=Michael McDonald/Kathy Mattea - Among The Missing vocal
TTITLE1=Diamond Rio - I know How The River Feels vocal
TTITLE2=Julia Reeves - It's About Time vocal
TTITLE3=George Strait - Write This Down vocal
TTITLE4=Claudia Church - What's The Matter With You Baby vocal
TTITLE5=Garth Brooks - Tearin' It Up (And Burnin It Down) vocal
TTITLE6=Wynonna - Freedom vocal
TTITLE7=Michael McDonald/Kathy Mattea - Among The Missing
TTITLE8=Diamond Rio - I Know How The River Feels
TTITLE9=Julia Reeves - It's About Time
TTITLE10=George Strait - Write This Down
TTITLE11=Claudia Church - What's The Matter With You Baby
TTITLE12=Garth Brooks - Tearin' It Up (And Burnin' It Down)
TTITLE13=Wynonna - Freedom
EXTD=
EXTT0=
EXTT1=
EXTT2=
EXTT3=
EXTT4=
EXTT5=
EXTT6=
EXTT7=
EXTT8=
EXTT9=
EXTT10=
EXTT11=
EXTT12=
EXTT13=
PLAYORDER=
